<svg width="1600px" height="424px" id="Layer_1" data-name="Layer 1" xmlns="http://www.w3.org/2000/svg" viewBox="0 0 457.43 120.59"><defs><style>.cls-1,.cls-2{fill:#e40520;}.cls-2{fill-rule:evenodd;}</style></defs><title>Shelter_logo_svg</title><path class="cls-1" d="M.06,80.07c-1.3,28.2,18.8,40.52,46.19,40.52,41,0,44.25-25.12,44.25-33.07,0-19-13.61-26.09-30-30.47l-28.2-7c-9.4-2.27-17.51-6.81-17.51-17.67,0-17.18,13.94-23,29-23,16.37,0,31,8.91,31.61,26.58h11C86.61,12.32,66.51,0,43.66,0,11.08,0,3.79,21.23,3.79,32.58c0,18,12.48,24.47,26.09,27.88l25.77,6.32c10.7,2.59,23.83,7.78,23.83,20.91,0,16.86-18.48,23.5-30.63,23.5-21.07,0-38.25-7.29-37.76-31.12Z"/><path class="cls-2" d="M256.59,79.1c.81-23.5-9.89-47-36.79-47C193.22,32.09,182,54.3,182,76.34c0,23.83,11.18,44.25,37.76,44.25,21.07,0,32.09-11,36.47-30H246.06C242.82,103.24,234.71,112,219.8,112c-19.61,0-27.39-18-27.55-32.9Zm-64.35-8.59c1.62-15.24,10.86-29.82,27.55-29.82,16.53,0,26.09,14.42,26.58,29.82Z"/><path class="cls-2" d="M404.73,79.1c.81-23.5-9.89-47-36.79-47-26.58,0-37.76,22.2-37.76,44.25,0,23.83,11.18,44.25,37.76,44.25,21.07,0,32.09-11,36.47-30H394.2C391,103.24,382.85,112,367.94,112c-19.61,0-27.39-18-27.55-32.9Zm-64.35-8.59c1.62-15.24,10.86-29.82,27.55-29.82,16.53,0,26.09,14.42,26.58,29.82Z"/><path class="cls-1" d="M416.1,118.3h10.21V73.73c0-17.34,12.64-31,31.12-30V33.53c-15.07-.65-26.42,7.29-31.6,20.75h-.32V34.67h-9.4V118.3Z"/><path class="cls-1" d="M310.76,2.62H300.55V34.52H286v8.59h14.59v57.21c-.16,14.26,4.54,18.8,18.15,18.8,3.08,0,6-.32,9.07-.32v-8.75a79.31,79.31,0,0,1-8.75.48c-7.29-.48-8.27-4.38-8.27-11V43.11h17V34.52h-17V2.62Z"/><polygon class="cls-1" points="267.98 2.62 278.19 2.62 278.19 118.3 267.98 118.3 267.98 2.62 267.98 2.62"/><polygon class="cls-1" points="112.28 2.62 112.28 52.04 138.44 29.23 171.19 58.88 171.19 118.3 160.88 118.3 160.88 62.48 137.85 41.73 112.28 63.97 112.28 118.3 102.07 118.3 102.07 2.62 112.28 2.62 112.28 2.62"/></svg>